# xmcd
# 
# Track frame offsets:
#     150
#     18000
#     39760
#     59270
#     87012
#     106517
#     124402
#     146902
#     169275
#     187320
#     207067
#     233905
#     256295
#     279052
#     299360
#     317992
# 
# Disc length: 4471
# 
# Revision: 9
# Processed by: cddbd v1.5.2PL0 Copyright (c) Steve Scherf et al.
# Submitted via: BonkEnc v1.0
# 
DISCID=db117510,df117510
DTITLE=Randy Crawford - The Best Of Randy Crawford and Friends
DYEAR=2000
DGENRE=Pop
TTITLE0=Randy Crawford meets tiefschwarz - I'll Be Around (Radio Edit 1)
TTITLE1=Give Me The Night (Chill Night Remix)
TTITLE2=You Might Need Somebody
TTITLE3=Forget Me Nots (Femi Fem Rotation Mix)
TTITLE4=Streetlife
TTITLE5=Cajun Moon (Cajun Trip Radio Mix)
TTITLE6=Knockin` On Heaven`s Door
TTITLE7=Bye Bye (Street Mix)
TTITLE8=Wishing On A Star (Elusive Clubradio Version)
TTITLE9=Rainy Night In Georgia
TTITLE10=Randy Crawford featuring yellowjackets - Imagine
TTITLE11=Captain Of Her Heart
TTITLE12=One Day I'll Fly Away
TTITLE13=Almaz
TTITLE14=Same Old Story - Same Old Song
TTITLE15=Are You Sure (New Radio Version)
EXTD=
EXTT0=
EXTT1=
EXTT2=
EXTT3=
EXTT4=
EXTT5=
EXTT6=
EXTT7=
EXTT8=
EXTT9=
EXTT10=
EXTT11=
EXTT12=
EXTT13=
EXTT14=
EXTT15=
PLAYORDER=
